<svg width="123" height="76" viewBox="0 0 123 76" fill="none" xmlns="http://www.w3.org/2000/svg">
<rect x="27.0698" y="52.0307" width="24" height="12" rx="3" transform="rotate(-90.1474 27.0698 52.0307)" fill="url(#paint0_linear_4_16)"/>
<rect x="44.1727" y="52.0308" width="40" height="12" rx="3" transform="rotate(-90.1474 44.1727 52.0308)" fill="url(#paint1_linear_4_16)"/>
<rect x="61.3064" y="52.0307" width="52" height="12" rx="3" transform="rotate(-90.1474 61.3064 52.0307)" fill="url(#paint2_linear_4_16)"/>
<rect x="78.3989" y="52.0307" width="36" height="12" rx="3" transform="rotate(-90.1474 78.3989 52.0307)" fill="url(#paint3_linear_4_16)"/>
<path d="M4.64276 68V59.2727H7.69389C8.30185 59.2727 8.80327 59.3778 9.19815 59.5881C9.59304 59.7955 9.88707 60.0753 10.0803 60.4276C10.2734 60.777 10.37 61.1648 10.37 61.5909C10.37 61.9659 10.3033 62.2756 10.1697 62.5199C10.0391 62.7642 9.86577 62.9574 9.64986 63.0994C9.43679 63.2415 9.20526 63.3466 8.95526 63.4148V63.5C9.2223 63.517 9.49077 63.6108 9.76065 63.7813C10.0305 63.9517 10.2564 64.196 10.4382 64.5142C10.62 64.8324 10.7109 65.2216 10.7109 65.6818C10.7109 66.1193 10.6115 66.5128 10.4126 66.8622C10.2138 67.2116 9.89986 67.4886 9.47088 67.6932C9.0419 67.8977 8.48366 68 7.79616 68H4.64276ZM5.69957 67.0625H7.79616C8.48651 67.0625 8.97656 66.929 9.26634 66.6619C9.55895 66.392 9.70526 66.0653 9.70526 65.6818C9.70526 65.3864 9.62997 65.1136 9.4794 64.8636C9.32884 64.6108 9.11435 64.4091 8.83594 64.2585C8.55753 64.1051 8.22798 64.0284 7.8473 64.0284H5.69957V67.0625ZM5.69957 63.108H7.6598C7.97798 63.108 8.26491 63.0455 8.5206 62.9205C8.77912 62.7955 8.98366 62.6193 9.13423 62.392C9.28764 62.1648 9.36435 61.8977 9.36435 61.5909C9.36435 61.2074 9.23082 60.8821 8.96378 60.6151C8.69673 60.3452 8.27344 60.2102 7.69389 60.2102H5.69957V63.108ZM12.8054 68H11.6974L14.902 59.2727H15.9929L19.1974 68H18.0895L15.4815 60.6534H15.4134L12.8054 68ZM13.2145 64.5909H17.6804V65.5284H13.2145V64.5909ZM25.3295 61.4545C25.2784 61.0227 25.071 60.6875 24.7074 60.4489C24.3438 60.2102 23.8977 60.0909 23.3693 60.0909C22.983 60.0909 22.6449 60.1534 22.3551 60.2784C22.0682 60.4034 21.8438 60.5753 21.6818 60.794C21.5227 61.0128 21.4432 61.2614 21.4432 61.5398C21.4432 61.7727 21.4986 61.973 21.6094 62.1406C21.723 62.3054 21.8679 62.4432 22.044 62.554C22.2202 62.6619 22.4048 62.7514 22.598 62.8224C22.7912 62.8906 22.9688 62.946 23.1307 62.9886L24.017 63.2273C24.2443 63.2869 24.4972 63.3693 24.7756 63.4744C25.0568 63.5795 25.3253 63.723 25.581 63.9048C25.8395 64.0838 26.0526 64.3139 26.2202 64.5952C26.3878 64.8764 26.4716 65.2216 26.4716 65.6307C26.4716 66.1023 26.348 66.5284 26.1009 66.9091C25.8565 67.2898 25.4986 67.5923 25.027 67.8168C24.5582 68.0412 23.9886 68.1534 23.3182 68.1534C22.6932 68.1534 22.152 68.0526 21.6946 67.8509C21.2401 67.6491 20.8821 67.3679 20.6207 67.0071C20.3622 66.6463 20.2159 66.2273 20.1818 65.75H21.2727C21.3011 66.0795 21.4119 66.3523 21.6051 66.5682C21.8011 66.7813 22.0483 66.9403 22.3466 67.0455C22.6477 67.1477 22.9716 67.1989 23.3182 67.1989C23.7216 67.1989 24.0838 67.1335 24.4048 67.0028C24.7259 66.8693 24.9801 66.6847 25.1676 66.4489C25.3551 66.2102 25.4489 65.9318 25.4489 65.6136C25.4489 65.3239 25.3679 65.0881 25.206 64.9063C25.044 64.7244 24.831 64.5767 24.5668 64.4631C24.3026 64.3494 24.017 64.25 23.7102 64.1648L22.6364 63.858C21.9545 63.6619 21.4148 63.3821 21.017 63.0185C20.6193 62.6548 20.4205 62.179 20.4205 61.5909C20.4205 61.1023 20.5526 60.6761 20.8168 60.3125C21.0838 59.946 21.4418 59.6619 21.8906 59.4602C22.3423 59.2557 22.8466 59.1534 23.4034 59.1534C23.9659 59.1534 24.4659 59.2543 24.9034 59.456C25.3409 59.6548 25.6875 59.9276 25.9432 60.2741C26.2017 60.6207 26.3381 61.0142 26.3523 61.4545H25.3295ZM28.2092 68V59.2727H29.266V63.6023H29.3683L33.2887 59.2727H34.6694L31.0046 63.2102L34.6694 68H33.391L30.3569 63.9432L29.266 65.1705V68H28.2092ZM36.0373 68V59.2727H41.3043V60.2102H37.0941V63.1591H41.0316V64.0966H37.0941V67.0625H41.3725V68H36.0373ZM42.7319 60.2102V59.2727H49.2773V60.2102H46.533V68H45.4762V60.2102H42.7319ZM50.9084 68V59.2727H53.9595C54.5675 59.2727 55.0689 59.3778 55.4638 59.5881C55.8587 59.7955 56.1527 60.0753 56.3459 60.4276C56.5391 60.777 56.6357 61.1648 56.6357 61.5909C56.6357 61.9659 56.5689 62.2756 56.4354 62.5199C56.3047 62.7642 56.1314 62.9574 55.9155 63.0994C55.7024 63.2415 55.4709 63.3466 55.2209 63.4148V63.5C55.4879 63.517 55.7564 63.6108 56.0263 63.7813C56.2962 63.9517 56.522 64.196 56.7038 64.5142C56.8857 64.8324 56.9766 65.2216 56.9766 65.6818C56.9766 66.1193 56.8771 66.5128 56.6783 66.8622C56.4794 67.2116 56.1655 67.4886 55.7365 67.6932C55.3075 67.8977 54.7493 68 54.0618 68H50.9084ZM51.9652 67.0625H54.0618C54.7521 67.0625 55.2422 66.929 55.532 66.6619C55.8246 66.392 55.9709 66.0653 55.9709 65.6818C55.9709 65.3864 55.8956 65.1136 55.745 64.8636C55.5945 64.6108 55.38 64.4091 55.1016 64.2585C54.8232 64.1051 54.4936 64.0284 54.1129 64.0284H51.9652V67.0625ZM51.9652 63.108H53.9254C54.2436 63.108 54.5305 63.0455 54.7862 62.9205C55.0447 62.7955 55.2493 62.6193 55.3999 62.392C55.5533 62.1648 55.63 61.8977 55.63 61.5909C55.63 61.2074 55.4964 60.8821 55.2294 60.6151C54.9624 60.3452 54.5391 60.2102 53.9595 60.2102H51.9652V63.108ZM59.071 68H57.9631L61.1676 59.2727H62.2585L65.4631 68H64.3551L61.7472 60.6534H61.679L59.071 68ZM59.4801 64.5909H63.946V65.5284H59.4801V64.5909ZM66.8224 68V59.2727H67.8793V67.0625H71.9361V68H66.8224ZM73.5724 68V59.2727H74.6293V67.0625H78.6861V68H73.5724ZM88.4702 61.4545C88.419 61.0227 88.2116 60.6875 87.848 60.4489C87.4844 60.2102 87.0384 60.0909 86.5099 60.0909C86.1236 60.0909 85.7855 60.1534 85.4957 60.2784C85.2088 60.4034 84.9844 60.5753 84.8224 60.794C84.6634 61.0128 84.5838 61.2614 84.5838 61.5398C84.5838 61.7727 84.6392 61.973 84.75 62.1406C84.8636 62.3054 85.0085 62.4432 85.1847 62.554C85.3608 62.6619 85.5455 62.7514 85.7386 62.8224C85.9318 62.8906 86.1094 62.946 86.2713 62.9886L87.1577 63.2273C87.3849 63.2869 87.6378 63.3693 87.9162 63.4744C88.1974 63.5795 88.4659 63.723 88.7216 63.9048C88.9801 64.0838 89.1932 64.3139 89.3608 64.5952C89.5284 64.8764 89.6122 65.2216 89.6122 65.6307C89.6122 66.1023 89.4886 66.5284 89.2415 66.9091C88.9972 67.2898 88.6392 67.5923 88.1676 67.8168C87.6989 68.0412 87.1293 68.1534 86.4588 68.1534C85.8338 68.1534 85.2926 68.0526 84.8352 67.8509C84.3807 67.6491 84.0227 67.3679 83.7614 67.0071C83.5028 66.6463 83.3565 66.2273 83.3224 65.75H84.4134C84.4418 66.0795 84.5526 66.3523 84.7457 66.5682C84.9418 66.7813 85.1889 66.9403 85.4872 67.0455C85.7884 67.1477 86.1122 67.1989 86.4588 67.1989C86.8622 67.1989 87.2244 67.1335 87.5455 67.0028C87.8665 66.8693 88.1207 66.6847 88.3082 66.4489C88.4957 66.2102 88.5895 65.9318 88.5895 65.6136C88.5895 65.3239 88.5085 65.0881 88.3466 64.9063C88.1847 64.7244 87.9716 64.5767 87.7074 64.4631C87.4432 64.3494 87.1577 64.25 86.8509 64.1648L85.777 63.858C85.0952 63.6619 84.5554 63.3821 84.1577 63.0185C83.7599 62.6548 83.5611 62.179 83.5611 61.5909C83.5611 61.1023 83.6932 60.6761 83.9574 60.3125C84.2244 59.946 84.5824 59.6619 85.0312 59.4602C85.483 59.2557 85.9872 59.1534 86.544 59.1534C87.1065 59.1534 87.6065 59.2543 88.044 59.456C88.4815 59.6548 88.8281 59.9276 89.0838 60.2741C89.3423 60.6207 89.4787 61.0142 89.4929 61.4545H88.4702ZM90.8725 60.2102V59.2727H97.418V60.2102H94.6737V68H93.6168V60.2102H90.8725ZM98.3874 68H97.2795L100.484 59.2727H101.575L104.779 68H103.672L101.064 60.6534H100.995L98.3874 68ZM98.7965 64.5909H103.262V65.5284H98.7965V64.5909ZM104.642 60.2102V59.2727H111.188V60.2102H108.443V68H107.386V60.2102H104.642ZM117.591 61.4545C117.54 61.0227 117.333 60.6875 116.969 60.4489C116.605 60.2102 116.159 60.0909 115.631 60.0909C115.245 60.0909 114.907 60.1534 114.617 60.2784C114.33 60.4034 114.105 60.5753 113.944 60.794C113.784 61.0128 113.705 61.2614 113.705 61.5398C113.705 61.7727 113.76 61.973 113.871 62.1406C113.985 62.3054 114.13 62.4432 114.306 62.554C114.482 62.6619 114.667 62.7514 114.86 62.8224C115.053 62.8906 115.23 62.946 115.392 62.9886L116.279 63.2273C116.506 63.2869 116.759 63.3693 117.037 63.4744C117.319 63.5795 117.587 63.723 117.843 63.9048C118.101 64.0838 118.314 64.3139 118.482 64.5952C118.65 64.8764 118.733 65.2216 118.733 65.6307C118.733 66.1023 118.61 66.5284 118.363 66.9091C118.118 67.2898 117.76 67.5923 117.289 67.8168C116.82 68.0412 116.25 68.1534 115.58 68.1534C114.955 68.1534 114.414 68.0526 113.956 67.8509C113.502 67.6491 113.144 67.3679 112.882 67.0071C112.624 66.6463 112.478 66.2273 112.444 65.75H113.534C113.563 66.0795 113.674 66.3523 113.867 66.5682C114.063 66.7813 114.31 66.9403 114.608 67.0455C114.909 67.1477 115.233 67.1989 115.58 67.1989C115.983 67.1989 116.346 67.1335 116.667 67.0028C116.988 66.8693 117.242 66.6847 117.429 66.4489C117.617 66.2102 117.711 65.9318 117.711 65.6136C117.711 65.3239 117.63 65.0881 117.468 64.9063C117.306 64.7244 117.093 64.5767 116.828 64.4631C116.564 64.3494 116.279 64.25 115.972 64.1648L114.898 63.858C114.216 63.6619 113.676 63.3821 113.279 63.0185C112.881 62.6548 112.682 62.179 112.682 61.5909C112.682 61.1023 112.814 60.6761 113.078 60.3125C113.346 59.946 113.703 59.6619 114.152 59.4602C114.604 59.2557 115.108 59.1534 115.665 59.1534C116.228 59.1534 116.728 59.2543 117.165 59.456C117.603 59.6548 117.949 59.9276 118.205 60.2741C118.463 60.6207 118.6 61.0142 118.614 61.4545H117.591Z" fill="black"/>
<defs>
<linearGradient id="paint0_linear_4_16" x1="39.0698" y1="52.0307" x2="39.0698" y2="64.0307" gradientUnits="userSpaceOnUse">
<stop stop-color="#FF5C00"/>
<stop offset="1" stop-color="#FFC700"/>
</linearGradient>
<linearGradient id="paint1_linear_4_16" x1="64.1727" y1="52.0308" x2="64.1727" y2="64.0308" gradientUnits="userSpaceOnUse">
<stop stop-color="#FF5C00"/>
<stop offset="1" stop-color="#FFC700"/>
</linearGradient>
<linearGradient id="paint2_linear_4_16" x1="87.3064" y1="52.0307" x2="87.3064" y2="64.0307" gradientUnits="userSpaceOnUse">
<stop stop-color="#FF5C00"/>
<stop offset="1" stop-color="#FFC700"/>
</linearGradient>
<linearGradient id="paint3_linear_4_16" x1="96.3989" y1="52.0307" x2="96.3989" y2="64.0307" gradientUnits="userSpaceOnUse">
<stop stop-color="#FF5C00"/>
<stop offset="1" stop-color="#FFC700"/>
</linearGradient>
</defs>
</svg>
